<svg xmlns="http://www.w3.org/2000/svg" xmlns:xlink="http://www.w3.org/1999/xlink" version="1.1" id="Layer_1" x="0px" y="0px" width="36px" height="36px" viewBox="0 0 36 36" enable-background="new 0 0 36 36" xml:space="preserve" preserveAspectRatio="xMidYMid meet">
  <g id="search_1_">
    <g id="search">
      <path d="M35.525 31.228l-8.880000000000003-8.881999999999998c1.443999999999999-2.2379999999999995 2.298000000000002-4.895 2.298000000000002-7.751999999999999 0-7.909-6.437999999999999-14.343-14.346-14.343 -7.911 0-14.343 6.434-14.343 14.343 0 7.910999999999998 6.433000000000001 14.343999999999998 14.343 14.343999999999998 2.855999999999998 0 5.513000000000002-0.8490000000000002 7.751999999999999-2.2940000000000005l8.880000000000003 8.879999999999999c0.2950000000000017 0.29699999999999704 0.7819999999999965 0.29699999999999704 1.0760000000000005 0l3.219999999999999-3.2210000000000036c0.2989999999999995-0.2949999999999946 0.2989999999999995-0.7799999999999976 0-1.0749999999999957ZM4.8100000000000005 14.593c0-5.396000000000001 4.391-9.788 9.788-9.788 5.3980000000000015 0 9.787 4.3919999999999995 9.787 9.788 0 5.398-4.388999999999999 9.788999999999998-9.787 9.788999999999998 -5.3980000000000015 3.552713678800501e-15-9.788-4.390999999999998-9.788-9.788999999999998Z" fill="white"/>
    </g>
  </g>
  <g/>
  <g/>
  <g/>
  <g/>
  <g/>
  <g/>
</svg>
